<svg width="26" height="26" viewBox="0 0 26 26" fill="none" xmlns="http://www.w3.org/2000/svg">
<path d="M16.4849 8.16325C16.4849 10.184 14.8377 11.8265 12.8003 11.8265C10.763 11.8265 9.11572 10.184 9.11572 8.16325C9.11572 6.1425 10.763 4.5 12.8003 4.5C14.8377 4.5 16.4849 6.14251 16.4849 8.16325Z" stroke="black"/>
<path d="M7.02649 19.6083L7.017 19.6031L7.00729 19.5983C6.6898 19.4403 6.5 19.119 6.5 18.6581C6.5 16.4215 8.36603 14.5613 10.6205 14.5613H14.9795C17.2402 14.5613 19.1 16.3408 19.1 18.6581C19.1 19.0714 18.8605 19.4333 18.5657 19.6126C17.8845 19.9862 16.2396 20.5 12.8 20.5C9.34734 20.5 7.70299 19.9822 7.02649 19.6083Z" stroke="black"/>
<rect x="0.5" y="0.5" width="25" height="25" rx="12.5" stroke="black"/>
</svg>
