<svg width="34" height="30" viewBox="0 0 34 30" fill="none" xmlns="http://www.w3.org/2000/svg">
<path d="M1.80928 25.5592C1.76031 25.5351 1.70864 25.5169 1.6555 25.505C0.382752 25.4237 -0.197452 24.7404 0.0598055 23.4868C0.21083 22.7641 0.449899 22.0627 0.771707 21.3983C0.97318 20.9809 1.38818 20.6671 1.69662 20.3184C1.59453 19.8716 1.39461 19.3913 1.40084 18.9133C1.4068 18.4508 1.62483 17.991 1.75982 17.4929C0.755439 16.5551 0.727517 16.3544 1.43944 14.728C1.04543 14.3203 1.00205 13.8268 1.06366 13.2657C1.23372 11.7193 1.43669 10.1814 2.02784 8.73051C3.53077 5.04238 6.19556 2.51152 9.92024 1.19314C14.4433 -0.407677 19.0094 -0.431655 23.5119 1.32758C25.5922 2.13997 27.4286 3.35139 28.7398 5.20987C29.259 5.91835 29.6947 6.68428 30.0384 7.49256C30.4939 8.62598 30.8184 9.81409 31.1598 10.9903C31.3975 11.8085 31.4713 12.6369 30.8756 13.4056C31.4319 13.8553 31.9159 14.3034 32.1494 14.9606C32.3912 15.6406 32.2086 16.2324 31.8196 16.8225C32.5313 17.5493 32.6334 18.401 32.3147 19.3642C32.9173 19.8258 33.4685 20.3557 33.7171 21.1057C33.8608 21.4944 33.9535 21.9002 33.9929 22.3128C34.0684 23.6421 33.5473 24.2321 32.2565 24.3835C32.2253 24.9799 32.2196 25.5743 32.1587 26.1626C32.0349 27.3608 31.3403 28.1383 30.2057 28.4211C29.126 28.6786 28.031 28.8684 26.9275 28.9899C24.8586 29.2387 22.7864 29.4705 20.7096 29.6354C17.2885 29.906 13.8602 30.0288 10.4337 29.7332C8.51996 29.5681 6.60971 29.3579 4.70263 29.1283C4.15351 29.047 3.61484 28.9063 3.09621 28.7085C2.78459 28.6062 2.51009 28.4143 2.30737 28.1565C2.10466 27.8986 1.98276 27.5867 1.95697 27.2597C1.88549 26.6914 1.856 26.117 1.80928 25.5592ZM29.9165 12.733C29.6219 11.4962 29.3824 10.3215 29.0567 9.17126C28.7404 7.98284 28.1977 6.86668 27.4579 5.88417C26.1659 4.21023 24.4433 3.16793 22.5093 2.44138C19.5781 1.34046 16.5463 1.14156 13.4802 1.64862C9.2098 2.35406 5.79766 4.35538 3.7132 8.30563C2.87981 9.88479 2.49105 11.5777 2.18586 13.3584C2.40934 13.4513 2.64045 13.525 2.87647 13.5786C3.65393 13.6821 4.43609 13.845 5.21409 13.8322C8.26923 13.7819 11.3232 13.6653 14.3781 13.5885C16.8551 13.5262 19.3325 13.4872 21.8098 13.4345C24.078 13.3864 26.3472 13.3438 28.5948 12.9866C29.0222 12.9185 29.4455 12.8242 29.9165 12.733ZM27.8154 23.5058C27.4377 23.7977 27.0808 24.0473 26.7534 24.3322C26.1584 24.8487 25.5253 24.937 24.8326 24.5612C24.563 24.4283 24.3024 24.2777 24.0528 24.1104C23.418 23.6479 22.802 23.6046 22.133 24.058C21.686 24.3464 21.221 24.6065 20.7412 24.8361C20.3517 25.0457 19.9169 25.1569 19.4745 25.1596C19.0323 25.1623 18.5961 25.0567 18.2041 24.8518C17.852 24.6781 17.5048 24.4918 17.17 24.287C16.9781 24.155 16.7534 24.0788 16.5208 24.0671C16.2882 24.0549 16.0568 24.1077 15.8522 24.2193C15.4428 24.4322 15.0334 24.6495 14.6443 24.8964C14.357 25.0953 14.0223 25.2149 13.6739 25.2436C13.3256 25.272 12.9758 25.2083 12.66 25.0587C12.2566 24.8852 11.8736 24.668 11.5174 24.4114C10.9246 23.9693 10.3258 23.9419 9.69969 24.2787C9.33412 24.4755 8.98728 24.7085 8.63647 24.9321C7.73377 25.5078 6.84621 25.4623 5.97425 24.8692C5.76397 24.7262 5.56545 24.5655 5.36574 24.4075C4.84472 23.9953 4.30312 23.9905 3.75867 24.3431C3.51388 24.5017 3.29401 24.6986 3.09782 24.8508C3.17906 25.3686 3.23717 25.8043 3.31571 26.2361C3.4878 27.1827 3.54719 27.2395 4.47455 27.4352C4.54223 27.4497 4.61244 27.4532 4.68082 27.4652C7.55797 27.951 10.4674 28.2216 13.3848 28.2745C18.0749 28.3898 22.7214 27.835 27.3636 27.2597C28.0733 27.1718 28.778 27.0303 29.4781 26.8816C29.9869 26.7733 30.2649 26.4238 30.3149 25.9041C30.3555 25.4769 30.3897 25.049 30.4302 24.5799C29.3713 24.6965 28.5768 24.2756 27.8154 23.5058ZM1.38655 24.1962C1.7023 24.0361 1.9492 23.927 2.1795 23.79C2.41753 23.6479 2.63292 23.4682 2.86933 23.323C4.01156 22.6214 5.03379 22.6851 6.07461 23.5157C6.21903 23.6312 6.36255 23.7482 6.50527 23.8666C6.97294 24.2538 7.45711 24.2862 7.97284 23.9561C8.33679 23.7102 8.71381 23.4841 9.10228 23.279C10.1389 22.7645 11.1469 22.7701 12.1013 23.5025C12.3436 23.6799 12.5995 23.8381 12.8666 23.9755C13.056 24.0898 13.2752 24.1447 13.4961 24.1329C13.717 24.1213 13.9293 24.0436 14.1056 23.9099C14.4862 23.6475 14.8884 23.4179 15.308 23.2235C16.1386 22.8479 16.9642 22.8444 17.7519 23.3715C17.9628 23.5128 18.1911 23.6279 18.4087 23.7595C18.6992 23.954 19.0398 24.0605 19.3894 24.0658C19.739 24.0714 20.0827 23.9759 20.3793 23.7906C20.8202 23.5367 21.2678 23.2933 21.6982 23.0224C22.6188 22.4435 23.5156 22.4728 24.4402 23.03C25.5757 23.7145 25.5849 23.6993 26.6354 22.9139C27.5154 22.2556 28.177 22.234 29.1219 22.8394C29.3857 23.0084 29.6411 23.1914 29.9208 23.3818C30.2864 22.9261 30.3887 22.1801 31.0489 22.2261C31.5634 22.262 32.0597 22.57 32.5787 22.7625C33.0982 21.9808 32.6429 20.6587 31.6964 20.1554C30.9265 20.3855 30.2325 20.655 29.5136 20.7981C26.8283 21.3337 24.0936 21.4259 21.3739 21.6541C20.0448 21.7657 18.7121 21.6023 17.3844 21.7634C17.1327 21.7937 16.8592 21.6351 16.5945 21.5684C16.3356 21.5031 16.0751 21.3892 15.8155 21.3896C13.0606 21.3947 10.3048 21.4564 7.55077 21.4203C6.23739 21.4032 4.92582 21.2019 3.61203 21.1033C3.36192 21.0826 3.1103 21.1154 2.87368 21.199C1.90546 21.5639 1.29326 22.7546 1.38655 24.1966V24.1962ZM10.6857 14.9945C10.6935 15.0411 10.7011 15.0877 10.7087 15.1342C12.57 16.5783 14.4217 18.0349 16.2965 19.461C17.2647 20.1976 17.1273 20.4592 18.1827 19.3305C19.4148 18.0136 20.5889 16.6431 21.7854 15.2933C21.8869 15.1788 21.9667 15.0449 22.1501 14.7903L10.6857 14.9945ZM14.5792 20.006C13.8666 19.4073 13.2765 18.9276 12.7065 18.4251C12.444 18.1936 12.1772 18.144 11.8264 18.1497C9.25925 18.1903 6.6912 18.4499 4.12323 18.1355C3.81003 18.0972 3.48161 18.1728 3.16182 18.2047C2.85134 18.2354 2.73654 18.4468 2.71013 18.7272C2.67426 19.1082 2.83139 19.3779 3.26535 19.49C3.79817 19.646 4.34632 19.744 4.90017 19.7825C7.88478 19.889 10.8712 19.9605 13.8562 20.0411C14.035 20.0465 14.2152 20.0252 14.5792 20.0066V20.006ZM31.008 17.4494C30.148 17.6697 29.3539 17.9511 28.5368 18.0675C26.1803 18.4137 23.8011 18.5827 21.4192 18.573C21.2658 18.5585 21.1121 18.5985 20.9852 18.686C20.5408 19.1427 20.1249 19.6267 19.6435 20.1628C20.3389 20.1628 20.9128 20.1989 21.4809 20.1563C23.556 20.001 25.6328 19.855 27.7013 19.632C28.6884 19.524 29.6634 19.3252 30.614 19.0383C31.4718 18.7808 31.5827 18.1506 31.008 17.4499V17.4494ZM22.3769 17.0153C22.6913 17.0153 22.8759 17.0255 23.0589 17.0137C24.5817 16.9163 26.111 16.8721 27.6244 16.6939C28.583 16.5583 29.5274 16.3351 30.4454 16.0269C31.0338 15.8437 31.1493 15.5049 30.9849 15.0153C30.7933 14.4453 30.3805 14.1507 29.8746 14.2459C28.2381 14.5547 26.5776 14.7184 24.9122 14.7352C24.5923 14.7383 24.2727 14.7659 24.0656 14.7758L22.3769 17.0153ZM2.75641 14.7512C2.59187 15.0457 2.44395 15.3491 2.31345 15.6602C2.15857 16.0962 2.21552 16.24 2.67007 16.3932C3.12928 16.5486 3.60252 16.6593 4.08302 16.7239C6.04278 16.9812 8.01084 16.8686 9.97683 16.8116C10.1545 16.79 10.3306 16.7564 10.5037 16.7109C10.1866 16.4705 9.97334 16.2987 9.74968 16.1416C9.409 15.9024 8.99619 15.7292 8.73417 15.424C8.46339 15.1089 8.18172 15.0763 7.82697 15.0759C6.16294 15.0744 4.49276 15.1836 2.75641 14.7512Z" fill="#E31B00"/>
<path d="M14.1133 4.76761C14.1443 4.49858 14.0973 4.21695 14.4182 4.11458C14.7322 4.01438 14.9698 4.16954 15.0994 4.44482C15.2399 4.73369 15.3503 5.03643 15.4283 5.34808C15.4943 5.62944 15.4387 5.91215 15.1221 6.04077C14.8427 6.15423 14.5399 6.02423 14.3925 5.68588C14.2807 5.38579 14.1876 5.07911 14.1133 4.76761Z" fill="#E31B00"/>
<path d="M9.07606 8.5022C9.17883 8.57395 9.42961 8.65762 9.46983 8.80007C9.49422 8.90472 9.49549 9.01346 9.47365 9.11865C9.45182 9.22388 9.4073 9.32304 9.34329 9.40936C8.99923 9.77941 8.51007 9.89681 8.02169 9.91509C7.66857 9.92862 7.51152 9.52393 7.75091 9.19411C8.04756 8.78629 8.47353 8.56569 9.07606 8.5022Z" fill="#E31B00"/>
<path d="M25.7847 11.6295C25.5606 11.4628 25.3116 11.3678 25.2485 11.202C25.1982 11.0699 25.3259 10.7854 25.4612 10.6854C25.735 10.4762 26.0454 10.3208 26.3769 10.2274C26.5506 10.1829 26.8772 10.2951 26.9544 10.4361C26.9853 10.5387 26.9896 10.6476 26.9667 10.7524C26.944 10.8572 26.8949 10.9545 26.8242 11.0351C26.5343 11.2746 26.1667 11.4202 25.7847 11.6295Z" fill="#E31B00"/>
<path d="M18.2571 9.47036C18.2379 9.01975 18.5761 8.79433 18.9466 8.96384C19.2844 9.11834 19.6729 9.87482 19.6084 10.2523C19.5506 10.5908 19.2193 10.7677 18.9423 10.5733C18.5809 10.3072 18.3355 9.91228 18.2571 9.47036Z" fill="#E31B00"/>
<path d="M24.7857 6.42951C24.7831 6.833 24.2306 7.38799 23.8314 7.38692C23.5797 7.38624 23.3421 7.10704 23.4669 6.85264C23.6191 6.52696 23.8457 6.24157 24.1285 6.01937C24.4297 5.80031 24.7884 6.05933 24.7857 6.42951Z" fill="#E31B00"/>
<path d="M12.624 12.4565C12.1982 12.4323 11.6998 11.9278 11.7081 11.5784C11.7124 11.5093 11.7307 11.4418 11.7617 11.3798C11.7927 11.3179 11.8358 11.2629 11.8886 11.218C11.9414 11.1732 12.0028 11.1395 12.069 11.1189C12.1351 11.0983 12.2047 11.0913 12.2736 11.0983C12.6092 11.1414 12.9933 11.6413 12.9825 12.0229C12.9749 12.2878 12.8843 12.4764 12.624 12.4565Z" fill="#E31B00"/>
</svg>
