<svg width="39" height="38" viewBox="0 0 39 38" fill="none" xmlns="http://www.w3.org/2000/svg">
<path d="M39 19.1147C38.9987 8.5579 30.2695 0 19.5 0C8.73053 0 0 8.55918 0 19.1173C0 28.6211 7.07389 36.5046 16.3402 37.9847L16.452 38V24.6424H11.5003V19.1147H16.452V14.9053C16.4273 14.6924 16.4143 14.445 16.4143 14.1952C16.4143 10.4689 19.4961 7.44753 23.297 7.44753C23.4804 7.44753 23.6624 7.45518 23.8432 7.46793L23.8198 7.46665C25.3789 7.48833 26.8873 7.62346 28.3593 7.8644L28.185 7.84018V12.5443H25.7248C25.6129 12.529 25.4842 12.5201 25.3542 12.5201C23.7976 12.5201 22.535 13.7566 22.535 15.2839C22.535 15.3706 22.5389 15.456 22.5467 15.5414L22.5454 15.5299V19.1147H27.9536L27.0888 24.6424H22.5454V38C31.9248 36.5034 38.9987 28.6186 39 19.1147Z" fill="#F1F1F1"/>
</svg>
