<svg width="38" height="38" viewBox="0 0 38 38" fill="none" xmlns="http://www.w3.org/2000/svg">
<path d="M20.2861 0.0388489C29.9275 0.0388489 37.8159 7.92728 37.8159 17.5687V20.3076C37.8159 29.949 29.9275 37.8374 20.2861 37.8374H17.5472C7.90577 37.8374 0.017334 29.949 0.017334 20.3076V17.5687C0.017334 7.92728 7.90577 0.0388489 17.5472 0.0388489H20.2861ZM19.2612 9.53916L19.0173 9.53885C16.9864 9.53885 14.9555 9.60598 14.9555 9.60598C11.9892 9.60598 9.58446 12.0107 9.58446 14.977C9.58446 14.977 9.52281 16.7209 9.51767 18.5927L9.51733 18.8374C9.51733 20.9332 9.58446 23.1007 9.58446 23.1007C9.58446 26.067 11.9892 28.4717 14.9555 28.4717C14.9555 28.4717 16.8543 28.5388 18.816 28.5388C20.9117 28.5388 23.1463 28.4717 23.1463 28.4717C26.1127 28.4717 28.4502 26.1342 28.4502 23.1678C28.4502 23.1678 28.5173 21.0248 28.5173 18.9717L28.5161 18.4899C28.507 16.6479 28.4502 14.9099 28.4502 14.9099C28.4502 11.9435 26.1126 9.60598 23.1463 9.60598C23.1463 9.60598 21.2127 9.54411 19.2612 9.53916ZM19.0173 11.2488C20.6827 11.2488 22.818 11.3039 22.818 11.3039C25.2504 11.3039 26.7523 12.8057 26.7523 15.2381C26.7523 15.2381 26.8073 17.3369 26.8073 18.9837C26.8073 20.6672 26.7523 22.8394 26.7523 22.8394C26.7523 25.2719 25.2504 26.7737 22.818 26.7737C22.818 26.7737 20.9297 26.82 19.2912 26.8277L18.8522 26.8288C17.2437 26.8288 15.2838 26.7737 15.2838 26.7737C12.8514 26.7737 11.2824 25.2046 11.2824 22.7723C11.2824 22.7723 11.2273 20.5922 11.2273 18.8736C11.2273 17.2651 11.2824 15.2381 11.2824 15.2381C11.2824 12.8057 12.8515 11.3039 15.2838 11.3039C15.2838 11.3039 17.3519 11.2488 19.0173 11.2488ZM19.0173 14.1724C16.3296 14.1724 14.1509 16.3511 14.1509 19.0388C14.1509 21.7264 16.3296 23.9052 19.0173 23.9052C21.705 23.9052 23.8837 21.7264 23.8837 19.0388C23.8837 16.3511 21.705 14.1724 19.0173 14.1724ZM19.0173 15.8721C20.7662 15.8721 22.184 17.2899 22.184 19.0388C22.184 20.7877 20.7662 22.2055 19.0173 22.2055C17.2684 22.2055 15.8506 20.7877 15.8506 19.0388C15.8506 17.2899 17.2684 15.8721 19.0173 15.8721ZM24.1166 12.8219C23.4672 12.8219 22.9407 13.351 22.9407 14.0036C22.9407 14.6562 23.4672 15.1852 24.1166 15.1852C24.766 15.1852 25.2924 14.6562 25.2924 14.0036C25.2924 13.3509 24.766 12.8219 24.1166 12.8219Z" fill="#F1F1F1"/>
</svg>
