<svg width="91" height="91" viewBox="0 0 91 91" fill="none" xmlns="http://www.w3.org/2000/svg">
<path opacity="0.39" d="M45.4557 90.9999C70.5602 90.9999 90.9114 70.6553 90.9114 45.559C90.9114 20.4627 70.5602 0.118042 45.4557 0.118042C20.3512 0.118042 0 20.4627 0 45.559C0 70.6553 20.3512 90.9999 45.4557 90.9999Z" fill="#E31B00"/>
<path d="M45.5443 90.8819C70.6488 90.8819 91 70.5373 91 45.441C91 20.3446 70.6488 0 45.5443 0C20.4398 0 0.088623 20.3446 0.088623 45.441C0.088623 70.5373 20.4398 90.8819 45.5443 90.8819Z" fill="#E31B00"/>
<path d="M75.3116 34.1154C75.3116 34.1154 71.7291 33.7966 71.6494 33.2297C71.5696 32.6628 76.806 26.0848 76.806 26.0848C77.9874 26.7432 82.0217 27.1595 80.8285 22.2466C77.8102 19.4861 76.0795 22.9109 75.9377 23.5457C75.5065 23.4896 67.0628 25.6803 66.4366 25.9076C66.7733 25.6124 67.5176 21.3491 67.5176 21.3491C67.5176 21.3491 72.6742 18.4439 68.7314 15.8162C64.2127 14.2219 64.3752 19.0639 64.3752 19.0639C64.0326 18.9871 59.9864 20.8088 59.2835 21.3314C58.9262 20.3482 59.0148 11.2399 59.0148 11.2399C59.0148 11.2399 63.0461 7.18033 58.746 5.63031C54.7737 4.61467 54.7737 8.94589 55.3407 10.2892C54.3248 10.9447 48.7694 19.7518 48.6513 19.3946C48.5332 19.0373 44.3009 16.3004 42.8242 15.3763C43.8107 13.4041 39.8708 7.91254 36.7905 12.7191C34.5547 19.4654 40.3788 17.8239 40.3788 17.8239L40.7953 26.0907C46.6312 37.5373 69.009 45.4971 69.9453 45.1191C70.8815 44.7412 71.422 42.1667 71.3983 41.6766C71.7173 41.7357 75.8786 37.7351 75.8786 37.7351C76.2567 38.4703 80.5332 39.7516 80.5391 34.3309C79.4286 30.0942 75.3116 34.1154 75.3116 34.1154ZM78.7375 23.0083C78.9128 23.0083 79.0841 23.0603 79.2298 23.1576C79.3755 23.2549 79.489 23.3933 79.5561 23.5551C79.6232 23.717 79.6407 23.8951 79.6065 24.0669C79.5723 24.2387 79.4879 24.3965 79.364 24.5204C79.2401 24.6443 79.0822 24.7286 78.9104 24.7628C78.7385 24.797 78.5603 24.7794 78.3985 24.7124C78.2366 24.6453 78.0982 24.5318 78.0008 24.3862C77.9035 24.2405 77.8515 24.0693 77.8515 23.8941C77.8515 23.777 77.8747 23.6611 77.9198 23.5531C77.9649 23.445 78.0309 23.347 78.1141 23.2646C78.1973 23.1823 78.2961 23.1172 78.4046 23.0732C78.5131 23.0292 78.6293 23.0072 78.7464 23.0083H78.7375ZM67.4969 17.198C67.7021 17.198 67.9026 17.2588 68.0731 17.3728C68.2437 17.4868 68.3765 17.6488 68.4549 17.8384C68.5333 18.0279 68.5536 18.2364 68.5134 18.4375C68.4732 18.6386 68.3741 18.8233 68.2289 18.9681C68.0836 19.1129 67.8986 19.2114 67.6973 19.251C67.496 19.2907 67.2875 19.2697 67.0981 19.1908C66.9088 19.1119 66.7471 18.9787 66.6335 18.8078C66.52 18.637 66.4597 18.4364 66.4603 18.2313C66.4603 18.0954 66.4871 17.9607 66.5392 17.8352C66.5914 17.7096 66.6678 17.5956 66.7641 17.4996C66.8604 17.4036 66.9747 17.3275 67.1004 17.2758C67.2262 17.224 67.3609 17.1976 67.4969 17.198ZM39.2447 16.3122C38.9648 16.3128 38.691 16.2304 38.458 16.0753C38.2249 15.9203 38.0432 15.6996 37.9356 15.4412C37.8281 15.1829 37.7997 14.8984 37.8539 14.6239C37.9082 14.3494 38.0427 14.0971 38.2404 13.8991C38.4381 13.701 38.6902 13.566 38.9647 13.5112C39.2392 13.4564 39.5238 13.4842 39.7825 13.5912C40.0411 13.6981 40.2623 13.8794 40.4178 14.112C40.5734 14.3446 40.6565 14.6182 40.6565 14.898C40.658 15.0843 40.6226 15.2691 40.5524 15.4417C40.4822 15.6143 40.3784 15.7713 40.2472 15.9036C40.1159 16.0359 39.9598 16.1409 39.7877 16.2125C39.6157 16.2842 39.4311 16.3211 39.2447 16.3211V16.3122ZM58.0579 7.39586C58.2389 7.39586 58.4159 7.44954 58.5665 7.55011C58.7171 7.65068 58.8344 7.79362 58.9037 7.96087C58.973 8.12811 58.9911 8.31213 58.9558 8.48968C58.9205 8.66722 58.8333 8.8303 58.7052 8.9583C58.5772 9.0863 58.4141 9.17347 58.2365 9.20879C58.0589 9.2441 57.8748 9.22598 57.7075 9.1567C57.5402 9.08743 57.3972 8.97012 57.2966 8.81961C57.196 8.66909 57.1423 8.49214 57.1423 8.31112C57.1446 8.06992 57.2421 7.83939 57.4136 7.66965C57.585 7.49992 57.8166 7.40471 58.0579 7.40472V7.39586ZM42.1715 25.7954C42.1715 25.7954 58.2971 24.2041 68.5719 42.6952C57.2959 41.1422 42.1715 25.7954 42.1715 25.7954ZM70.1845 39.6483C70.1845 39.6483 56.7849 22.3736 42.08 24.0328C42.08 24.0328 42.2011 17.8534 41.9323 17.5552C41.6636 17.257 48.2319 22.2791 49.0205 22.0045C50.2668 21.8953 56.404 12.8667 56.404 12.8667C56.404 12.8667 56.7613 23.6461 57.7773 24.086C58.2764 24.5141 65.2435 21.1336 65.2435 21.1336C65.2435 21.1336 63.4537 27.6702 64.198 28.2371C65.0456 29.2528 73.767 26.3476 73.767 26.3476C73.767 26.3476 69.0681 32.716 69.3369 33.6135C69.706 35.0661 74.3251 35.881 74.3251 35.881L70.1845 39.6483ZM77.8899 36.7815C77.5978 36.7815 77.3123 36.6949 77.0695 36.5327C76.8266 36.3705 76.6374 36.1399 76.5256 35.8702C76.4138 35.6004 76.3846 35.3036 76.4416 35.0172C76.4986 34.7309 76.6392 34.4679 76.8457 34.2614C77.0522 34.0549 77.3154 33.9144 77.6018 33.8574C77.8883 33.8004 78.1852 33.8297 78.455 33.9414C78.7248 34.0531 78.9555 34.2423 79.1177 34.4851C79.28 34.7279 79.3666 35.0133 79.3666 35.3052C79.3666 35.6968 79.211 36.0722 78.9341 36.3491C78.6571 36.6259 78.2815 36.7815 77.8899 36.7815Z" fill="#F09F01"/>
<path d="M25.8097 63.5925H19.0169C18.8702 63.5876 18.7258 63.5537 18.5922 63.4927C18.4586 63.4318 18.3384 63.3451 18.2385 63.2375C18.1386 63.1299 18.0609 63.0037 18.01 62.866C17.9591 62.7283 17.936 62.5819 17.9419 62.4352L18.3819 26.9823C18.3779 26.6911 18.4882 26.4099 18.6892 26.1991C18.8902 25.9882 19.1658 25.8645 19.457 25.8545H28.7661C28.9266 25.8571 29.0844 25.8965 29.2272 25.9697C29.3701 26.0429 29.4942 26.148 29.5901 26.2767L33.1341 31.1512C33.5388 31.6678 33.8075 31.4464 34.2535 30.9563L38.3941 26.1911C38.4907 26.0858 38.608 26.0016 38.7386 25.9437C38.8692 25.8858 39.0103 25.8554 39.1532 25.8545H47.7859C48.0802 25.8645 48.3586 25.9907 48.5601 26.2054C48.7615 26.4201 48.8697 26.7058 48.861 27V62.4293C48.8653 62.576 48.8404 62.7222 48.7879 62.8593C48.7353 62.9964 48.656 63.1217 48.5547 63.228C48.4533 63.3343 48.3319 63.4194 48.1974 63.4784C48.0629 63.5374 47.918 63.5692 47.7712 63.5719L40.4615 63.4774C40.1722 63.4636 39.8995 63.338 39.7011 63.127C39.5027 62.916 39.3941 62.6362 39.3983 62.3466L39.2329 43.7669C39.2329 42.6686 38.5891 41.2721 37.9777 42.1549L33.9286 47.8885C33.5269 48.479 32.8329 48.358 32.3751 47.8295L28.8488 43.1056C28.1902 42.3409 27.1831 41.5851 27.1771 42.6214L26.8818 62.444C26.8869 62.5898 26.8633 62.7352 26.8122 62.8719C26.761 63.0085 26.6835 63.1338 26.5839 63.2404C26.4843 63.3471 26.3647 63.4331 26.2319 63.4935C26.099 63.5539 25.9556 63.5876 25.8097 63.5925Z" fill="white"/>
<path d="M65.7042 48.4199C65.7042 48.4199 68.9293 50.4512 70.0043 46.8669C71.0794 43.2827 53.1021 31.9394 51.011 52.7187C51.5486 72.125 68.6901 63.5866 70.8431 58.0951C70.8431 58.0951 71.3186 53.256 66.9594 55.0482C63.495 57.6168 58.2971 61.08 57.8216 52.9578C58.7726 43.4008 65.7042 48.4199 65.7042 48.4199Z" fill="white"/>
</svg>
