<svg width="24" height="20" viewBox="0 0 24 20" fill="none" xmlns="http://www.w3.org/2000/svg">
<path d="M20.9678 15.3733C20.9581 15.6609 20.8791 15.944 20.7356 16.2057C20.5921 16.4674 20.3869 16.7024 20.1322 16.8967C19.8776 17.0911 19.5787 17.2408 19.2532 17.3369C18.9278 17.4331 18.5825 17.4738 18.2378 17.4566C16.0848 17.4666 13.9318 17.4566 11.7788 17.4566C11.6462 17.4566 11.519 17.4127 11.4253 17.3346C11.3315 17.2565 11.2788 17.1505 11.2788 17.04C11.2788 16.9295 11.3315 16.8235 11.4253 16.7453C11.519 16.6672 11.6462 16.6233 11.7788 16.6233C13.9788 16.6233 16.1788 16.65 18.3788 16.6233C19.4858 16.61 19.9678 15.9166 19.9678 15.0916V4.7058C19.9755 4.44352 19.887 4.18553 19.714 3.96633C19.541 3.74712 19.2918 3.57715 18.9998 3.47914C18.6546 3.40062 18.2953 3.37382 17.9388 3.39997H11.7788C11.6462 3.39997 11.519 3.35607 11.4253 3.27793C11.3315 3.19979 11.2788 3.09381 11.2788 2.9833C11.2788 2.8728 11.3315 2.76682 11.4253 2.68868C11.519 2.61054 11.6462 2.56664 11.7788 2.56664C14.0028 2.56664 16.2438 2.4958 18.4658 2.56664C18.8061 2.57381 19.1412 2.6373 19.4518 2.75342C19.7623 2.86955 20.0421 3.03598 20.2747 3.24303C20.5074 3.45008 20.6883 3.69363 20.8069 3.95949C20.9256 4.22535 20.9796 4.50822 20.9658 4.79164L20.9678 15.3733Z" fill="black"/>
<path d="M3.17578 9.71924C3.09129 9.78751 3.04183 9.8804 3.03778 9.97841C3.03778 9.99091 3.03778 10.0017 3.03178 10.0142C3.02578 10.0267 3.03178 10.0367 3.03778 10.0484C3.04178 10.1467 3.09123 10.2398 3.17578 10.3084L6.84478 13.3659C6.93908 13.4418 7.06538 13.4838 7.19648 13.4829C7.32758 13.4819 7.45299 13.4381 7.54569 13.3608C7.6384 13.2836 7.69098 13.1791 7.69212 13.0698C7.69326 12.9606 7.64286 12.8553 7.55178 12.7767L4.73678 10.4301H15.4788C15.6114 10.4301 15.7386 10.3862 15.8323 10.308C15.9261 10.2299 15.9788 10.1239 15.9788 10.0134C15.9788 9.9029 15.9261 9.79692 15.8323 9.71878C15.7386 9.64064 15.6114 9.59674 15.4788 9.59674H4.73678L7.55178 7.25007C7.64286 7.17149 7.69326 7.06624 7.69212 6.95699C7.69098 6.84774 7.6384 6.74324 7.54569 6.66598C7.45299 6.58873 7.32758 6.54491 7.19648 6.54396C7.06538 6.54301 6.93908 6.58501 6.84478 6.66091L3.17578 9.71924Z" fill="black"/>
</svg>
