<svg width="27" height="27" viewBox="0 0 27 27" fill="none" xmlns="http://www.w3.org/2000/svg">
<path d="M5.7046 12.8623C5.25541 12.4503 4.67541 12.8864 4.72406 13.2684L4.72406 22.108C4.72406 22.4252 4.98122 22.6825 5.2985 22.6825L14.1368 22.6825C14.6289 22.6825 14.9142 22.0731 14.5429 21.7018L5.7046 12.8623ZM5.87288 21.5335L5.87288 14.6553L12.7501 21.5335L5.87288 21.5335Z" fill="black"/>
<path d="M26.83 26.0187L0.980541 0.165806C0.7101 -0.129596 0.0212694 -0.0514061 -1.00005e-07 0.571963L-4.62028e-06 26.4249C-4.67575e-06 26.7422 0.257157 26.9994 0.574434 26.9994L26.4239 26.9994C26.8218 27.0203 27.2436 26.4852 26.83 26.0187ZM1.14887 25.8504L1.14888 1.95888L4.07039 4.88078L3.25807 5.6932L4.07039 6.50557L4.8827 5.6932L8.37865 9.1896L7.56634 10.002L8.37865 10.8143L9.19096 10.002L12.6869 13.4984L11.8746 14.3108L12.6869 15.1232L13.4992 14.3108L16.9952 17.8073L16.1829 18.6197L16.9952 19.4321L17.8075 18.6197L21.3034 22.1161L20.4911 22.9285L21.3034 23.7409L22.1158 22.9285L25.0373 25.8504L1.14887 25.8504Z" fill="black"/>
</svg>
