<svg width="28" height="28" viewBox="0 0 28 28" fill="none" xmlns="http://www.w3.org/2000/svg">
<path d="M14 27C21.1797 27 27 21.1797 27 14C27 6.8203 21.1797 1 14 1C6.8203 1 1 6.8203 1 14C1 21.1797 6.8203 27 14 27Z" stroke="black" stroke-linecap="round" stroke-linejoin="round"/>
<path d="M14 3.82618V1" stroke="black" stroke-linecap="round" stroke-linejoin="round"/>
<path d="M14 27V24.1738" stroke="black" stroke-linecap="round" stroke-linejoin="round"/>
<path d="M21.1938 6.80599L23.1925 4.80737" stroke="black" stroke-linecap="round" stroke-linejoin="round"/>
<path d="M4.80762 23.1927L6.80624 21.1941" stroke="black" stroke-linecap="round" stroke-linejoin="round"/>
<path d="M24.1738 14H27" stroke="black" stroke-linecap="round" stroke-linejoin="round"/>
<path d="M1 14H3.82618" stroke="black" stroke-linecap="round" stroke-linejoin="round"/>
<path d="M21.1938 21.1941L23.1925 23.1927" stroke="black" stroke-linecap="round" stroke-linejoin="round"/>
<path d="M4.80762 4.80737L6.80624 6.80599" stroke="black" stroke-linecap="round" stroke-linejoin="round"/>
<path d="M13.9995 7.21729V13.4346L7.62842 16.1075" stroke="black" stroke-linecap="round" stroke-linejoin="round"/>
</svg>
