<svg width="24" height="25" viewBox="0 0 24 25" fill="none" xmlns="http://www.w3.org/2000/svg">
<path fill-rule="evenodd" clip-rule="evenodd" d="M2.31415 0.0222791C2.38243 0.0209116 2.45027 0.0334278 2.51356 0.0590655C2.57685 0.084705 2.63427 0.122932 2.68234 0.171429C2.70066 0.19493 2.71683 0.220018 2.73069 0.246396L4.10707 1.65175L4.46758 1.29873C4.48268 1.27248 4.50025 1.24772 4.52006 1.22482C4.62141 1.1325 4.75395 1.08198 4.89103 1.08341C5.02811 1.08485 5.15957 1.13813 5.25896 1.23254C5.27829 1.25586 5.29534 1.28097 5.30989 1.30753L21.5328 17.8761C21.6457 17.9335 21.7333 18.0308 21.7787 18.1491L23.7133 23.2368C23.7282 23.2669 23.7402 23.2984 23.7491 23.3308L23.7516 23.337C23.7515 23.3411 23.7515 23.3458 23.7515 23.3494C23.7662 23.3975 23.7742 23.4473 23.7752 23.4976C23.7752 23.5471 23.7675 23.5964 23.7525 23.6437C23.7493 23.654 23.7523 23.6638 23.7475 23.6746C23.7428 23.6854 23.7423 23.6813 23.7407 23.6854C23.7222 23.73 23.6972 23.7715 23.6665 23.8087C23.6531 23.8292 23.638 23.8486 23.6214 23.8667C23.603 23.8829 23.5833 23.8975 23.5625 23.9106C23.5246 23.9404 23.4826 23.9645 23.4377 23.9822C23.4341 23.9845 23.4305 23.9868 23.4267 23.9888C23.4164 23.9923 23.4061 23.9886 23.3951 23.9931C23.3478 24.0066 23.2988 24.0133 23.2496 24.0128C23.1994 24.0111 23.1495 24.0027 23.1015 23.988C23.0973 23.9879 23.0932 23.9879 23.0896 23.9878L23.0829 23.9847C23.0507 23.9752 23.0195 23.9627 22.9897 23.9475L17.9432 21.9034C17.826 21.8551 17.7307 21.7654 17.6754 21.6514L3.47096 7.1485C3.291 7.20189 3.12849 7.30222 3.00013 7.43918C2.87178 7.57614 2.78219 7.7448 2.74058 7.92783C2.69897 8.11086 2.70684 8.30167 2.76337 8.48065C2.8199 8.65964 2.92306 8.82035 3.06225 8.94629L4.7241 10.6478L8.22396 14.2161C8.31278 14.3127 8.36052 14.4401 8.35708 14.5713C8.35364 14.7025 8.29929 14.8271 8.20553 14.919C8.11177 15.0108 7.98596 15.0625 7.85473 15.0632C7.7235 15.0639 7.59715 15.0135 7.50242 14.9227L2.36119 9.67271C2.35249 9.66383 2.35002 9.65295 2.34236 9.64356C2.11313 9.42405 1.93816 9.15419 1.8313 8.85535C1.72444 8.55651 1.68862 8.23689 1.72669 7.92181C1.76475 7.60674 1.87565 7.30484 2.0506 7.04005C2.22556 6.77525 2.45976 6.55481 2.73467 6.39619L1.44888 5.08072C1.42287 5.0655 1.3983 5.04793 1.37548 5.02825C1.28312 4.92683 1.23258 4.79421 1.23401 4.65705C1.23545 4.51989 1.28875 4.38836 1.3832 4.28889C1.40643 4.26968 1.43136 4.25263 1.45769 4.23796L1.81819 3.88493L0.441808 2.47957C0.415797 2.46435 0.391229 2.44678 0.368407 2.4271C0.276052 2.32567 0.225512 2.19306 0.226945 2.0559C0.228379 1.91874 0.28168 1.78721 0.376135 1.68774C0.399363 1.66853 0.424293 1.65149 0.450616 1.63681L1.89369 0.223685C1.90809 0.197605 1.92479 0.17286 1.94359 0.149748C1.99385 0.10504 2.05249 0.0707517 2.1161 0.0488704C2.17971 0.0269892 2.24703 0.0179514 2.31415 0.0222791ZM22.3141 22.5308L21.0559 19.2207L19.0303 21.2033L22.3141 22.5308ZM2.46252 4.67764L18.1293 20.6721L20.5426 18.311L4.87586 2.31236L2.46252 4.67764ZM1.4554 2.08167L2.53965 3.18665L3.38551 2.36038L2.30129 1.25334L1.4554 2.08167Z" fill="black"/>
</svg>
